# xmcd
#
# Track frame offsets: 
#        150
#        16750
#        31990
#        50373
#        65695
#        85932
#        98800
#        117964
#        136202
#        155487
#        172081
#        187595
#        205004
#
# Disc length: 2900 seconds
#
# Revision: 1
# Processed by: cddbd v1.5.2PL0 Copyright (c) Steve Scherf et al.
# Submitted via: ExactAudioCopyFreeDBPlugin 1.0
#
DISCID=a10b520d
DTITLE=Altered Five Blues Band - Charmed and Dangerous
DYEAR=2017
DGENRE=Blues
TTITLE0=Charmed and Dangerous
TTITLE1=Mint Condition
TTITLE2=Three Forks
TTITLE3=On My List to Quit
TTITLE4=If Your Heart Went Public
TTITLE5=Gonna Lose My Lady
TTITLE6=Cookin' in My Kitchen
TTITLE7=She's Still Crazy
TTITLE8=Eighth Wonder
TTITLE9=Three Alarm Desire
TTITLE10=Small Talk
TTITLE11=Rotten
TTITLE12=Look What You Made Me Do
EXTD=
EXTT0=
EXTT1=
EXTT2=
EXTT3=
EXTT4=
EXTT5=
EXTT6=
EXTT7=
EXTT8=
EXTT9=
EXTT10=
EXTT11=
EXTT12=
PLAYORDER=
